<svg width="32" height="33" viewBox="0 0 32 33" fill="none" xmlns="http://www.w3.org/2000/svg">
<path d="M28 6.71582H4C3.73478 6.71582 3.48043 6.82118 3.29289 7.00871C3.10536 7.19625 3 7.4506 3 7.71582V24.7158C3 25.2463 3.21071 25.755 3.58579 26.13C3.96086 26.5051 4.46957 26.7158 5 26.7158H27C27.5304 26.7158 28.0391 26.5051 28.4142 26.13C28.7893 25.755 29 25.2463 29 24.7158V7.71582C29 7.4506 28.8946 7.19625 28.7071 7.00871C28.5196 6.82118 28.2652 6.71582 28 6.71582ZM25.4287 8.71582L16 17.3596L6.57125 8.71582H25.4287ZM27 24.7158H5V9.98957L15.3237 19.4533C15.5082 19.6227 15.7496 19.7166 16 19.7166C16.2504 19.7166 16.4918 19.6227 16.6763 19.4533L27 9.98957V24.7158Z" fill="url(#paint0_linear_96_994)"/>
<defs>
<linearGradient id="paint0_linear_96_994" x1="5.55594" y1="-20.9034" x2="33.1703" y2="-18.3479" gradientUnits="userSpaceOnUse">
<stop offset="0.2" stop-color="#B0E63B"/>
<stop offset="0.6" stop-color="#E0E23B"/>
</linearGradient>
</defs>
</svg>
