<svg width="1404" height="218" viewBox="0 0 1404 218" fill="none" xmlns="http://www.w3.org/2000/svg">
<path d="M10 166.399V10H39.852V65.1613C42.6642 61.2676 53.9127 50.4516 73.3814 50.4516C105.829 50.4516 127.029 74.8957 127.029 109.939C127.029 144.767 104.099 169.211 71.6509 169.211C52.3985 169.211 41.1499 158.395 38.1215 154.717V166.399H10ZM38.9867 110.156C38.9867 128.11 49.8027 142.82 67.9735 142.82C84.8463 142.82 96.9602 130.273 96.9602 110.156C96.9602 90.4706 85.279 76.8425 67.9735 76.8425C51.5332 76.8425 38.9867 88.9564 38.9867 110.156Z" fill="url(#paint0_linear_96_982)"/>
<path d="M202.333 50.4516V80.7363C180.052 80.7363 171.832 94.5807 171.832 117.078V166.399H141.98V53.2638H171.183V69.704C176.158 58.4554 187.407 50.4516 202.333 50.4516Z" fill="url(#paint1_linear_96_982)"/>
<path d="M211.278 131.355C211.278 109.074 228.8 93.9317 255.191 93.9317C266.656 93.9317 275.525 97.3928 279.635 100.205V92.8501C279.635 82.8995 272.28 76.1936 259.084 76.1936C247.836 76.1936 237.453 79.871 229.016 84.1974L217.768 63.8634C227.934 56.9412 245.024 50.4516 262.329 50.4516C298.671 50.4516 309.487 69.4877 309.487 94.797V166.399H283.096L281.149 159.044C275.308 165.317 266.656 169.211 253.676 169.211C230.747 169.211 211.278 155.15 211.278 131.355ZM241.13 130.49C241.13 139.791 249.566 146.065 260.815 146.065C272.064 146.065 280.284 140.008 280.284 130.49C280.284 120.539 272.064 114.698 260.599 114.698C249.134 114.698 241.13 121.188 241.13 130.49Z" fill="url(#paint2_linear_96_982)"/>
<path d="M388.955 50.4516C421.187 50.4516 428.109 77.0589 428.109 101.07V166.399H398.257V97.6091C398.257 85.0626 389.604 77.2752 379.437 77.2752C367.107 77.2752 359.319 86.3606 359.319 98.4744V166.399H329.467V53.2638H358.671V66.4592C363.43 58.6717 374.245 50.4516 388.955 50.4516Z" fill="url(#paint3_linear_96_982)"/>
<path d="M559.105 10V166.399H530.984V154.717C527.955 158.395 516.707 169.211 497.454 169.211C465.006 169.211 442.077 144.767 442.077 109.939C442.077 74.8957 463.276 50.4516 495.724 50.4516C515.192 50.4516 526.441 61.2676 529.253 65.1613V10H559.105ZM530.118 110.156C530.118 88.9564 517.572 76.8425 501.132 76.8425C483.826 76.8425 472.145 90.4706 472.145 110.156C472.145 130.273 484.259 142.82 501.132 142.82C519.302 142.82 530.118 128.11 530.118 110.156Z" fill="url(#paint4_linear_96_982)"/>
<path d="M574.273 110.156C574.273 75.9772 597.419 50.4516 629.65 50.4516C664.694 50.4516 684.595 73.8141 684.595 110.805C684.595 112.968 684.595 115.131 684.379 117.294H604.774C605.423 132.436 617.537 143.252 634.193 143.252C649.552 143.252 658.421 134.167 661.666 129.408L681.351 144.334C677.024 152.338 661.882 169.211 633.76 169.211C597.419 169.211 574.273 144.118 574.273 110.156ZM605.639 97.8255H654.311C653.662 83.9811 643.711 74.8957 630.083 74.8957C616.022 74.8957 606.937 84.8463 605.639 97.8255Z" fill="url(#paint5_linear_96_982)"/>
<path d="M809.756 10V166.399H781.635V154.717C778.606 158.395 767.358 169.211 748.105 169.211C715.657 169.211 692.728 144.767 692.728 109.939C692.728 74.8957 713.927 50.4516 746.375 50.4516C765.843 50.4516 777.092 61.2676 779.904 65.1613V10H809.756ZM780.769 110.156C780.769 88.9564 768.223 76.8425 751.783 76.8425C734.477 76.8425 722.796 90.4706 722.796 110.156C722.796 130.273 734.91 142.82 751.783 142.82C769.953 142.82 780.769 128.11 780.769 110.156Z" fill="url(#paint6_linear_96_982)"/>
<path d="M826.654 143.469L835.956 139.791C840.282 149.742 848.286 159.476 864.943 159.476C877.706 159.476 889.387 151.473 889.387 137.628C889.387 107.343 831.413 117.294 831.413 80.3036C831.413 62.3492 845.907 51.3169 864.943 51.3169C885.709 51.3169 895.227 64.7287 897.823 73.5978L888.954 77.0589C885.926 70.1367 880.301 60.8349 864.078 60.8349C851.964 60.8349 842.013 67.7571 842.013 79.6547C842.013 108.641 899.986 98.6907 899.986 137.196C899.986 156.015 884.844 169.211 864.51 169.211C840.282 169.211 831.197 154.717 826.654 143.469Z" fill="url(#paint7_linear_96_982)"/>
<path d="M922.523 54.129V30.7666H933.339V54.129H959.729V63.8634H933.339V127.029C933.339 151.473 938.963 157.746 955.836 157.746C958.215 157.746 960.811 157.529 960.811 157.529V167.264C960.811 167.264 955.619 167.696 951.509 167.696C933.771 167.696 922.523 156.664 922.523 133.951V63.8634H908.678V54.129H922.523Z" fill="url(#paint8_linear_96_982)"/>
<path d="M1025.13 51.3169V61.9165C998.525 61.9165 990.521 83.7647 990.521 107.127V166.399H979.705V54.129H990.521V74.2467C993.982 62.9981 1006.96 51.3169 1025.13 51.3169Z" fill="url(#paint9_linear_96_982)"/>
<path d="M1045.01 110.156C1045.01 138.277 1064.04 159.044 1091.3 159.044C1118.55 159.044 1137.81 138.277 1137.81 110.156C1137.81 82.6831 1118.77 61.4839 1091.3 61.4839C1064.04 61.4839 1045.01 82.6831 1045.01 110.156ZM1033.76 110.156C1033.76 76.4099 1058.42 51.3169 1091.51 51.3169C1124.61 51.3169 1149.06 76.8425 1149.06 110.156C1149.06 143.901 1124.18 169.211 1091.3 169.211C1058.2 169.211 1033.76 144.334 1033.76 110.156Z" fill="url(#paint10_linear_96_982)"/>
<path d="M1217.07 51.3169C1240.21 51.3169 1257.08 67.3245 1257.08 93.4991V166.399H1246.27V94.3644C1246.27 73.8141 1233.29 61.2676 1215.77 61.2676C1196.08 61.2676 1182.02 75.9773 1182.02 97.8255V166.399H1171.21V54.129H1182.02V71.8672C1187.65 60.6186 1201.27 51.3169 1217.07 51.3169Z" fill="url(#paint11_linear_96_982)"/>
<path d="M1291.26 196.034L1295.8 187.381C1300.56 190.41 1314.19 197.548 1330.63 197.548C1354.86 197.548 1374.54 186.733 1374.54 157.746V145.632C1371.95 149.958 1359.83 169.211 1332.79 169.211C1300.78 169.211 1278.07 144.767 1278.07 110.588C1278.07 75.9773 1300.13 51.3169 1331.71 51.3169C1357.24 51.3169 1370.87 68.6224 1374.54 75.5446V54.129H1385.36V150.175C1385.36 192.789 1363.08 207.715 1330.85 207.715C1316.79 207.715 1301 202.307 1291.26 196.034ZM1374.98 110.588C1374.98 79.4384 1355.29 61.4839 1331.93 61.4839C1307.49 61.4839 1289.31 81.8179 1289.31 110.588C1289.31 140.008 1308.35 159.044 1332.36 159.044C1358.54 159.044 1374.98 136.979 1374.98 110.588Z" fill="url(#paint12_linear_96_982)"/>
<defs>
<linearGradient id="paint0_linear_96_982" x1="145.205" y1="-263.037" x2="1328.35" y2="322.843" gradientUnits="userSpaceOnUse">
<stop offset="0.2" stop-color="#B0E63B"/>
<stop offset="0.6" stop-color="#E0E23B"/>
</linearGradient>
<linearGradient id="paint1_linear_96_982" x1="145.205" y1="-263.037" x2="1328.35" y2="322.843" gradientUnits="userSpaceOnUse">
<stop offset="0.2" stop-color="#B0E63B"/>
<stop offset="0.6" stop-color="#E0E23B"/>
</linearGradient>
<linearGradient id="paint2_linear_96_982" x1="145.205" y1="-263.037" x2="1328.35" y2="322.843" gradientUnits="userSpaceOnUse">
<stop offset="0.2" stop-color="#B0E63B"/>
<stop offset="0.6" stop-color="#E0E23B"/>
</linearGradient>
<linearGradient id="paint3_linear_96_982" x1="145.205" y1="-263.037" x2="1328.35" y2="322.843" gradientUnits="userSpaceOnUse">
<stop offset="0.2" stop-color="#B0E63B"/>
<stop offset="0.6" stop-color="#E0E23B"/>
</linearGradient>
<linearGradient id="paint4_linear_96_982" x1="145.205" y1="-263.037" x2="1328.35" y2="322.843" gradientUnits="userSpaceOnUse">
<stop offset="0.2" stop-color="#B0E63B"/>
<stop offset="0.6" stop-color="#E0E23B"/>
</linearGradient>
<linearGradient id="paint5_linear_96_982" x1="145.205" y1="-263.037" x2="1328.35" y2="322.843" gradientUnits="userSpaceOnUse">
<stop offset="0.2" stop-color="#B0E63B"/>
<stop offset="0.6" stop-color="#E0E23B"/>
</linearGradient>
<linearGradient id="paint6_linear_96_982" x1="145.205" y1="-263.037" x2="1328.35" y2="322.843" gradientUnits="userSpaceOnUse">
<stop offset="0.2" stop-color="#B0E63B"/>
<stop offset="0.6" stop-color="#E0E23B"/>
</linearGradient>
<linearGradient id="paint7_linear_96_982" x1="145.205" y1="-263.037" x2="1328.35" y2="322.843" gradientUnits="userSpaceOnUse">
<stop offset="0.2" stop-color="#B0E63B"/>
<stop offset="0.6" stop-color="#E0E23B"/>
</linearGradient>
<linearGradient id="paint8_linear_96_982" x1="145.205" y1="-263.037" x2="1328.35" y2="322.843" gradientUnits="userSpaceOnUse">
<stop offset="0.2" stop-color="#B0E63B"/>
<stop offset="0.6" stop-color="#E0E23B"/>
</linearGradient>
<linearGradient id="paint9_linear_96_982" x1="145.205" y1="-263.037" x2="1328.35" y2="322.843" gradientUnits="userSpaceOnUse">
<stop offset="0.2" stop-color="#B0E63B"/>
<stop offset="0.6" stop-color="#E0E23B"/>
</linearGradient>
<linearGradient id="paint10_linear_96_982" x1="145.205" y1="-263.037" x2="1328.35" y2="322.843" gradientUnits="userSpaceOnUse">
<stop offset="0.2" stop-color="#B0E63B"/>
<stop offset="0.6" stop-color="#E0E23B"/>
</linearGradient>
<linearGradient id="paint11_linear_96_982" x1="145.205" y1="-263.037" x2="1328.35" y2="322.843" gradientUnits="userSpaceOnUse">
<stop offset="0.2" stop-color="#B0E63B"/>
<stop offset="0.6" stop-color="#E0E23B"/>
</linearGradient>
<linearGradient id="paint12_linear_96_982" x1="145.205" y1="-263.037" x2="1328.35" y2="322.843" gradientUnits="userSpaceOnUse">
<stop offset="0.2" stop-color="#B0E63B"/>
<stop offset="0.6" stop-color="#E0E23B"/>
</linearGradient>
</defs>
</svg>
