<svg width="68" height="68" viewBox="0 0 68 68" fill="none" xmlns="http://www.w3.org/2000/svg">
<path d="M34 6.37476C28.5363 6.37476 23.1953 7.99493 18.6524 11.0304C14.1095 14.0659 10.5687 18.3803 8.47784 23.4281C6.38697 28.4759 5.8399 34.0304 6.90582 39.3891C7.97174 44.7479 10.6028 49.6702 14.4662 53.5336C18.3296 57.397 23.2519 60.028 28.6106 61.0939C33.9694 62.1599 39.5238 61.6128 44.5716 59.5219C49.6194 57.4311 53.9339 53.8903 56.9694 49.3474C60.0048 44.8045 61.625 39.4635 61.625 33.9998C61.6173 26.6755 58.7043 19.6535 53.5253 14.4745C48.3463 9.29546 41.3242 6.38249 34 6.37476ZM36.125 57.2765V40.3748H42.5C43.0636 40.3748 43.6041 40.1509 44.0026 39.7524C44.4011 39.3538 44.625 38.8133 44.625 38.2498C44.625 37.6862 44.4011 37.1457 44.0026 36.7472C43.6041 36.3486 43.0636 36.1248 42.5 36.1248H36.125V29.7498C36.125 28.6226 36.5728 27.5416 37.3698 26.7446C38.1668 25.9475 39.2478 25.4998 40.375 25.4998H44.625C45.1886 25.4998 45.7291 25.2759 46.1276 24.8774C46.5261 24.4788 46.75 23.9383 46.75 23.3748C46.75 22.8112 46.5261 22.2707 46.1276 21.8722C45.7291 21.4736 45.1886 21.2498 44.625 21.2498H40.375C38.1207 21.2498 35.9587 22.1453 34.3646 23.7393C32.7705 25.3334 31.875 27.4954 31.875 29.7498V36.1248H25.5C24.9364 36.1248 24.3959 36.3486 23.9974 36.7472C23.5989 37.1457 23.375 37.6862 23.375 38.2498C23.375 38.8133 23.5989 39.3538 23.9974 39.7524C24.3959 40.1509 24.9364 40.3748 25.5 40.3748H31.875V57.2765C25.8846 56.7296 20.3356 53.8945 16.3823 49.3607C12.4289 44.827 10.3755 38.9437 10.6492 32.9347C10.9229 26.9256 13.5027 21.2534 17.8518 17.0978C22.201 12.9422 27.9847 10.6233 34 10.6233C40.0153 10.6233 45.7991 12.9422 50.1482 17.0978C54.4974 21.2534 57.0771 26.9256 57.3508 32.9347C57.6245 38.9437 55.5711 44.827 51.6178 49.3607C47.6644 53.8945 42.1154 56.7296 36.125 57.2765Z" fill="url(#paint0_linear_0_2148)"/>
<defs>
<linearGradient id="paint0_linear_0_2148" x1="11.8064" y1="-69.9233" x2="70.691" y2="-65.7316" gradientUnits="userSpaceOnUse">
<stop offset="0.2" stop-color="#B0E63B"/>
<stop offset="0.6" stop-color="#E0E23B"/>
</linearGradient>
</defs>
</svg>
