<svg width="68" height="68" viewBox="0 0 68 68" fill="none" xmlns="http://www.w3.org/2000/svg">
<path d="M34 21.2498C31.4783 21.2498 29.0132 21.9975 26.9165 23.3985C24.8198 24.7995 23.1856 26.7908 22.2205 29.1205C21.2555 31.4503 21.003 34.0139 21.495 36.4872C21.9869 38.9604 23.2013 41.2323 24.9844 43.0154C26.7675 44.7985 29.0393 46.0128 31.5126 46.5048C33.9859 46.9967 36.5495 46.7442 38.8792 45.7792C41.209 44.8142 43.2002 43.18 44.6012 41.0833C46.0022 38.9865 46.75 36.5215 46.75 33.9998C46.7465 30.6193 45.4021 27.3784 43.0117 24.988C40.6214 22.5977 37.3804 21.2533 34 21.2498ZM34 42.4998C32.3189 42.4998 30.6755 42.0012 29.2777 41.0672C27.8798 40.1333 26.7904 38.8057 26.147 37.2526C25.5037 35.6994 25.3354 33.9903 25.6633 32.3415C25.9913 30.6926 26.8008 29.1781 27.9896 27.9893C29.1783 26.8006 30.6929 25.9911 32.3417 25.6631C33.9906 25.3351 35.6996 25.5034 37.2528 26.1468C38.806 26.7901 40.1335 27.8796 41.0675 29.2774C42.0015 30.6752 42.5 32.3186 42.5 33.9998C42.5 36.2541 41.6045 38.4161 40.0104 40.0102C38.4163 41.6042 36.2543 42.4998 34 42.4998ZM46.75 6.37476H21.25C17.3062 6.37897 13.5251 7.94751 10.7364 10.7362C7.94776 13.5249 6.37922 17.306 6.375 21.2498V46.7498C6.37922 50.6936 7.94776 54.4746 10.7364 57.2633C13.5251 60.052 17.3062 61.6205 21.25 61.6248H46.75C50.6938 61.6205 54.4749 60.052 57.2636 57.2633C60.0522 54.4746 61.6208 50.6936 61.625 46.7498V21.2498C61.6208 17.306 60.0522 13.5249 57.2636 10.7362C54.4749 7.94751 50.6938 6.37897 46.75 6.37476ZM57.375 46.7498C57.375 49.5677 56.2556 52.2702 54.263 54.2628C52.2704 56.2553 49.5679 57.3748 46.75 57.3748H21.25C18.4321 57.3748 15.7296 56.2553 13.737 54.2628C11.7444 52.2702 10.625 49.5677 10.625 46.7498V21.2498C10.625 18.4318 11.7444 15.7293 13.737 13.7367C15.7296 11.7442 18.4321 10.6248 21.25 10.6248H46.75C49.5679 10.6248 52.2704 11.7442 54.263 13.7367C56.2556 15.7293 57.375 18.4318 57.375 21.2498V46.7498ZM51 20.1873C51 20.8177 50.8131 21.434 50.4628 21.9581C50.1126 22.4823 49.6147 22.8909 49.0323 23.1321C48.4499 23.3734 47.809 23.4365 47.1907 23.3135C46.5723 23.1905 46.0044 22.8869 45.5586 22.4412C45.1128 21.9954 44.8092 21.4274 44.6862 20.8091C44.5633 20.1908 44.6264 19.5499 44.8676 18.9675C45.1089 18.385 45.5174 17.8872 46.0416 17.5369C46.5658 17.1867 47.1821 16.9998 47.8125 16.9998C48.6579 16.9998 49.4686 17.3356 50.0664 17.9334C50.6642 18.5311 51 19.3419 51 20.1873Z" fill="url(#paint0_linear_0_2147)"/>
<defs>
<linearGradient id="paint0_linear_0_2147" x1="11.8064" y1="-69.9233" x2="70.691" y2="-65.7315" gradientUnits="userSpaceOnUse">
<stop offset="0.2" stop-color="#B0E63B"/>
<stop offset="0.6" stop-color="#E0E23B"/>
</linearGradient>
</defs>
</svg>
