<svg width="22" height="29" viewBox="0 0 22 29" fill="none" xmlns="http://www.w3.org/2000/svg">
<path d="M11 6.71582C10.0111 6.71582 9.04439 7.00907 8.22215 7.55847C7.3999 8.10788 6.75904 8.88877 6.3806 9.8024C6.00216 10.716 5.90315 11.7214 6.09607 12.6913C6.289 13.6612 6.7652 14.5521 7.46447 15.2514C8.16373 15.9506 9.05464 16.4268 10.0245 16.6197C10.9945 16.8127 11.9998 16.7137 12.9134 16.3352C13.827 15.9568 14.6079 15.3159 15.1573 14.4937C15.7068 13.6714 16 12.7047 16 11.7158C16 10.3897 15.4732 9.11797 14.5355 8.18029C13.5979 7.2426 12.3261 6.71582 11 6.71582ZM11 14.7158C10.4067 14.7158 9.82664 14.5399 9.33329 14.2102C8.83994 13.8806 8.45542 13.412 8.22836 12.8639C8.0013 12.3157 7.94189 11.7125 8.05764 11.1305C8.1734 10.5486 8.45912 10.0141 8.87868 9.5945C9.29824 9.17494 9.83279 8.88922 10.4147 8.77346C10.9967 8.65771 11.5999 8.71712 12.1481 8.94418C12.6962 9.17124 13.1648 9.55576 13.4944 10.0491C13.8241 10.5425 14 11.1225 14 11.7158C14 12.5115 13.6839 13.2745 13.1213 13.8371C12.5587 14.3997 11.7956 14.7158 11 14.7158ZM11 0.71582C8.08363 0.719129 5.28766 1.87912 3.22548 3.9413C1.1633 6.00348 0.00330842 8.79945 0 11.7158C0 15.6408 1.81375 19.8008 5.25 23.7471C6.79403 25.5303 8.53182 27.136 10.4312 28.5346C10.5994 28.6524 10.7997 28.7155 11.005 28.7155C11.2103 28.7155 11.4106 28.6524 11.5788 28.5346C13.4747 27.1354 15.2091 25.5297 16.75 23.7471C20.1812 19.8008 22 15.6408 22 11.7158C21.9967 8.79945 20.8367 6.00348 18.7745 3.9413C16.7123 1.87912 13.9164 0.719129 11 0.71582ZM11 26.4658C8.93375 24.8408 2 18.8721 2 11.7158C2 9.32887 2.94821 7.03969 4.63604 5.35186C6.32387 3.66403 8.61305 2.71582 11 2.71582C13.3869 2.71582 15.6761 3.66403 17.364 5.35186C19.0518 7.03969 20 9.32887 20 11.7158C20 18.8696 13.0662 24.8408 11 26.4658Z" fill="url(#paint0_linear_96_997)"/>
<defs>
<linearGradient id="paint0_linear_96_997" x1="2.16271" y1="-37.9507" x2="25.6553" y2="-36.6367" gradientUnits="userSpaceOnUse">
<stop offset="0.2" stop-color="#B0E63B"/>
<stop offset="0.6" stop-color="#E0E23B"/>
</linearGradient>
</defs>
</svg>
