<svg width="68" height="68" viewBox="0 0 68 68" fill="none" xmlns="http://www.w3.org/2000/svg">
<path d="M30.9125 28.5595C31.7275 29.3725 32.8317 29.8291 33.9828 29.8291C35.134 29.8291 36.2382 29.3725 37.0532 28.5595L45.1689 20.4411C45.5721 20.0381 45.8918 19.5597 46.11 19.0331C46.3282 18.5065 46.4405 17.9421 46.4405 17.3721C46.4405 16.8021 46.3282 16.2377 46.11 15.7111C45.8918 15.1845 45.5721 14.706 45.1689 14.303L37.0532 6.18468C36.2382 5.37164 35.134 4.91504 33.9828 4.91504C32.8317 4.91504 31.7275 5.37164 30.9125 6.18468L22.7967 14.303C22.3936 14.706 22.0738 15.1845 21.8557 15.7111C21.6375 16.2377 21.5252 16.8021 21.5252 17.3721C21.5252 17.9421 21.6375 18.5065 21.8557 19.0331C22.0738 19.5597 22.3936 20.0381 22.7967 20.4411L30.9125 28.5595ZM25.7217 17.2384L33.8401 9.12266C33.8746 9.08842 33.9212 9.06921 33.9699 9.06921C34.0185 9.06921 34.0651 9.08842 34.0996 9.12266L42.218 17.2384C42.2504 17.2738 42.2685 17.3201 42.2685 17.3682C42.2685 17.4162 42.2504 17.4625 42.218 17.498L34.1152 25.6241C34.0804 25.6577 34.0338 25.6765 33.9854 25.6765C33.937 25.6765 33.8905 25.6577 33.8557 25.6241L25.7321 17.5057C25.6974 17.4699 25.678 17.422 25.678 17.3721C25.678 17.3222 25.6974 17.2742 25.7321 17.2384H25.7217ZM61.7716 30.9135L53.6636 22.7951C52.8491 21.9822 51.7453 21.5257 50.5946 21.5257C49.4438 21.5257 48.3401 21.9822 47.5255 22.7951L39.4072 30.9135C38.5941 31.7284 38.1375 32.8326 38.1375 33.9838C38.1375 35.135 38.5941 36.2392 39.4072 37.0542L47.5255 45.1725C48.3401 45.9854 49.4438 46.4419 50.5946 46.4419C51.7453 46.4419 52.8491 45.9854 53.6636 45.1725L61.782 37.0542C62.595 36.2392 63.0516 35.135 63.0516 33.9838C63.0516 32.8326 62.595 31.7284 61.782 30.9135H61.7716ZM58.8466 34.1162L50.7282 42.2345C50.6928 42.267 50.6465 42.285 50.5985 42.285C50.5504 42.285 50.5041 42.267 50.4687 42.2345L42.3503 34.1162C42.3167 34.0813 42.2979 34.0348 42.2979 33.9864C42.2979 33.938 42.3167 33.8915 42.3503 33.8566L50.4687 25.7383C50.5041 25.7058 50.5504 25.6878 50.5985 25.6878C50.6465 25.6878 50.6928 25.7058 50.7282 25.7383L58.8466 33.8566C58.8802 33.8915 58.899 33.938 58.899 33.9864C58.899 34.0348 58.8802 34.0813 58.8466 34.1162ZM28.5585 30.9135L20.4401 22.7951C19.6256 21.9822 18.5219 21.5257 17.3711 21.5257C16.2203 21.5257 15.1166 21.9822 14.3021 22.7951L6.18371 30.9135C5.37066 31.7284 4.91406 32.8326 4.91406 33.9838C4.91406 35.135 5.37066 36.2392 6.18371 37.0542L14.3021 45.1725C15.1166 45.9854 16.2203 46.4419 17.3711 46.4419C18.5219 46.4419 19.6256 45.9854 20.4401 45.1725L28.5585 37.0542C29.3715 36.2392 29.8281 35.135 29.8281 33.9838C29.8281 32.8326 29.3715 31.7284 28.5585 30.9135ZM25.6231 34.1162L17.5048 42.2345C17.4693 42.267 17.423 42.285 17.375 42.285C17.3269 42.285 17.2806 42.267 17.2452 42.2345L9.11908 34.1162C9.08546 34.0813 9.06668 34.0348 9.06668 33.9864C9.06668 33.938 9.08546 33.8915 9.11908 33.8566L17.2374 25.7331C17.2729 25.7006 17.3192 25.6826 17.3672 25.6826C17.4153 25.6826 17.4616 25.7006 17.497 25.7331L25.6153 33.8514C25.6333 33.8683 25.6477 33.8885 25.6578 33.9109C25.6679 33.9334 25.6735 33.9576 25.6742 33.9822C25.6749 34.0068 25.6708 34.0313 25.662 34.0543C25.6533 34.0773 25.64 34.0983 25.6231 34.1162ZM37.0428 39.4082C36.2278 38.5951 35.1236 38.1385 33.9725 38.1385C32.8213 38.1385 31.7171 38.5951 30.9021 39.4082L22.7967 47.5265C22.3936 47.9295 22.0738 48.4079 21.8557 48.9345C21.6375 49.4611 21.5252 50.0256 21.5252 50.5956C21.5252 51.1656 21.6375 51.73 21.8557 52.2566C22.0738 52.7832 22.3936 53.2616 22.7967 53.6646L30.9125 61.7829C31.7275 62.596 32.8317 63.0526 33.9828 63.0526C35.134 63.0526 36.2382 62.596 37.0532 61.7829L45.1689 53.6646C45.5721 53.2616 45.8918 52.7832 46.11 52.2566C46.3282 51.73 46.4405 51.1656 46.4405 50.5956C46.4405 50.0256 46.3282 49.4611 46.11 48.9345C45.8918 48.4079 45.5721 47.9295 45.1689 47.5265L37.0428 39.4082ZM42.2336 50.7292L34.1152 58.845C34.0807 58.8792 34.034 58.8984 33.9854 58.8984C33.9368 58.8984 33.8902 58.8792 33.8557 58.845L25.7321 50.7292C25.6997 50.6938 25.6816 50.6475 25.6816 50.5994C25.6816 50.5514 25.6997 50.5051 25.7321 50.4697L33.8505 42.3513C33.8853 42.3177 33.9318 42.2989 33.9802 42.2989C34.0287 42.2989 34.0752 42.3177 34.11 42.3513L42.2284 50.4697C42.2615 50.5044 42.2805 50.5504 42.2814 50.5984C42.2824 50.6465 42.2653 50.6932 42.2336 50.7292Z" fill="#1C1C1C"/>
</svg>
