<svg width="68" height="67" viewBox="0 0 68 67" fill="none" xmlns="http://www.w3.org/2000/svg">
<path d="M11.9639 33.4518C12.8438 34.1755 13.5528 35.0849 14.0402 36.1147C15.286 38.6841 15.286 41.8245 15.286 44.8715C15.286 51.1808 15.5455 54.2148 21.5149 54.2148C22.0655 54.2148 22.5937 54.4336 22.983 54.823C23.3724 55.2124 23.5912 55.7405 23.5912 56.2912C23.5912 56.8418 23.3724 57.3699 22.983 57.7593C22.5937 58.1487 22.0655 58.3675 21.5149 58.3675C16.9781 58.3675 13.9052 56.7739 12.3791 53.6283C11.1333 51.0589 11.1333 47.9184 11.1333 44.8715C11.1333 38.5621 10.8738 35.5281 4.90443 35.5281C4.35376 35.5281 3.82564 35.3093 3.43626 34.92C3.04688 34.5306 2.82813 34.0025 2.82812 33.4518C2.82812 32.9011 3.04688 32.373 3.43626 31.9836C3.82564 31.5942 4.35376 31.3755 4.90443 31.3755C10.8738 31.3755 11.1333 28.3415 11.1333 22.0321C11.1333 18.9903 11.1333 15.8447 12.3791 13.2753C13.9104 10.1297 16.9833 8.53613 21.5201 8.53613C22.0707 8.53613 22.5988 8.75489 22.9882 9.14427C23.3776 9.53365 23.5964 10.0618 23.5964 10.6124C23.5964 11.1631 23.3776 11.6912 22.9882 12.0806C22.5988 12.47 22.0707 12.6887 21.5201 12.6887C15.5507 12.6887 15.2911 15.7227 15.2911 22.0321C15.2911 25.0739 15.2911 28.2195 14.0454 30.7889C13.5565 31.8192 12.8457 32.7286 11.9639 33.4518ZM63.0462 31.3755C57.0768 31.3755 56.8172 28.3415 56.8172 22.0321C56.8172 18.9903 56.8172 15.8447 55.5715 13.2753C54.0454 10.1297 50.9725 8.53613 46.4357 8.53613C45.8851 8.53613 45.3569 8.75489 44.9676 9.14427C44.5782 9.53365 44.3594 10.0618 44.3594 10.6124C44.3594 11.1631 44.5782 11.6912 44.9676 12.0806C45.3569 12.47 45.8851 12.6887 46.4357 12.6887C52.4051 12.6887 52.6646 15.7227 52.6646 22.0321C52.6646 25.0739 52.6646 28.2195 53.9104 30.7889C54.3978 31.8187 55.1068 32.7281 55.9867 33.4518C55.1068 34.1755 54.3978 35.0849 53.9104 36.1147C52.6646 38.6841 52.6646 41.8245 52.6646 44.8715C52.6646 51.1808 52.4051 54.2148 46.4357 54.2148C45.8851 54.2148 45.3569 54.4336 44.9676 54.823C44.5782 55.2124 44.3594 55.7405 44.3594 56.2912C44.3594 56.8418 44.5782 57.3699 44.9676 57.7593C45.3569 58.1487 45.8851 58.3675 46.4357 58.3675C50.9725 58.3675 54.0454 56.7739 55.5715 53.6283C56.8172 51.0589 56.8172 47.9184 56.8172 44.8715C56.8172 38.5621 57.0768 35.5281 63.0462 35.5281C63.5968 35.5281 64.125 35.3093 64.5143 34.92C64.9037 34.5306 65.1225 34.0025 65.1225 33.4518C65.1225 32.9011 64.9037 32.373 64.5143 31.9836C64.125 31.5942 63.5968 31.3755 63.0462 31.3755Z" fill="#1C1C1C"/>
</svg>
