<svg width="68" height="68" viewBox="0 0 68 68" fill="none" xmlns="http://www.w3.org/2000/svg">
<path d="M27.6975 48.9901C27.5963 49.3924 25.0658 58.8681 11.1468 58.8681C10.5961 58.8681 10.068 58.6494 9.67863 58.26C9.28925 57.8706 9.07049 57.3425 9.07049 56.7918C9.07049 42.8728 18.5462 40.3423 18.9485 40.241C19.483 40.1075 20.0487 40.1918 20.521 40.4753C20.9934 40.7588 21.3338 41.2184 21.4673 41.7529C21.6009 42.2874 21.5166 42.853 21.2331 43.3254C20.9496 43.7977 20.49 44.1381 19.9555 44.2717C19.7219 44.3366 14.1367 45.9691 13.3217 54.6169C21.9695 53.8019 23.6046 48.227 23.6721 47.9675C23.8098 47.4337 24.1539 46.9764 24.6287 46.6963C25.1035 46.4162 25.6701 46.3362 26.2039 46.4739C26.7377 46.6115 27.195 46.9556 27.4751 47.4304C27.7552 47.9052 27.8352 48.4718 27.6975 49.0057V48.9901ZM51.8346 31.4972L50.5966 32.7352V47.8741C50.5997 48.4215 50.4939 48.9641 50.2854 49.4702C50.0768 49.9764 49.7697 50.436 49.382 50.8224L40.4746 59.7246C40.0905 60.1114 39.6336 60.4184 39.1302 60.6278C38.6268 60.8371 38.087 60.9448 37.5418 60.9444C37.0919 60.9443 36.6449 60.8715 36.2182 60.729C35.4855 60.4866 34.8352 60.0442 34.3408 59.4516C33.8463 58.8591 33.5275 58.14 33.4204 57.3758L32.0266 47.3861L20.5525 35.912L10.568 34.5182C9.80276 34.4109 9.08262 34.0922 8.48862 33.5979C7.89463 33.1036 7.45033 32.4534 7.20572 31.7203C6.96111 30.9873 6.92589 30.2006 7.10402 29.4486C7.28215 28.6967 7.66656 28.0094 8.21402 27.464L17.1162 18.5566C17.5026 18.1688 17.9622 17.8618 18.4684 17.6532C18.9745 17.4447 19.5171 17.3389 20.0645 17.342H35.2034L36.4414 16.104C43.3659 9.18212 51.71 8.88365 54.975 9.07831C55.9874 9.13983 56.9423 9.56974 57.6595 10.2869C58.3766 11.0041 58.8066 11.959 58.8681 12.9714C59.0575 16.2286 58.7591 24.5727 51.8372 31.4972H51.8346ZM11.1468 30.4072L20.7886 31.7516L31.0508 21.4946H20.0645L11.1468 30.4072ZM24.4663 33.9524L33.9862 43.4723L48.8966 28.5618C50.906 26.566 52.465 24.1631 53.4686 21.5148C54.4723 18.8664 54.8974 16.0339 54.7155 13.2076C51.8906 13.0324 49.0609 13.462 46.4154 14.4677C43.7698 15.4733 41.3693 17.0319 39.3742 19.0394L24.4663 33.9524ZM46.444 36.8878L36.1844 47.1474L37.534 56.7918L46.444 47.8741V36.8878Z" fill="#1C1C1C"/>
</svg>
