<svg width="68" height="67" viewBox="0 0 68 67" fill="none" xmlns="http://www.w3.org/2000/svg">
<path d="M44.3639 29.3314H56.8217C57.923 29.3314 58.9793 28.8939 59.758 28.1151C60.5368 27.3364 60.9743 26.2801 60.9743 25.1788V12.721C60.9743 11.6196 60.5368 10.5634 59.758 9.78463C58.9793 9.00587 57.923 8.56836 56.8217 8.56836H44.3639C43.2625 8.56836 42.2063 9.00587 41.4275 9.78463C40.6488 10.5634 40.2113 11.6196 40.2113 12.721V16.8736H38.1349C35.9323 16.8736 33.8198 17.7486 32.2623 19.3061C30.7047 20.8637 29.8297 22.9761 29.8297 25.1788V31.4077H21.5245V29.3314C21.5245 28.2301 21.087 27.1738 20.3082 26.3951C19.5295 25.6163 18.4732 25.1788 17.3719 25.1788H9.06667C7.96533 25.1788 6.9091 25.6163 6.13033 26.3951C5.35157 27.1738 4.91406 28.2301 4.91406 29.3314V37.6366C4.91406 38.738 5.35157 39.7942 6.13033 40.573C6.9091 41.3517 7.96533 41.7892 9.06667 41.7892H17.3719C18.4732 41.7892 19.5295 41.3517 20.3082 40.573C21.087 39.7942 21.5245 38.738 21.5245 37.6366V35.5603H29.8297V41.7892C29.8297 43.9919 30.7047 46.1044 32.2623 47.6619C33.8198 49.2194 35.9323 50.0945 38.1349 50.0945H40.2113V54.2471C40.2113 55.3484 40.6488 56.4046 41.4275 57.1834C42.2063 57.9622 43.2625 58.3997 44.3639 58.3997H56.8217C57.923 58.3997 58.9793 57.9622 59.758 57.1834C60.5368 56.4046 60.9743 55.3484 60.9743 54.2471V41.7892C60.9743 40.6879 60.5368 39.6317 59.758 38.8529C58.9793 38.0741 57.923 37.6366 56.8217 37.6366H44.3639C43.2625 37.6366 42.2063 38.0741 41.4275 38.8529C40.6488 39.6317 40.2113 40.6879 40.2113 41.7892V45.9419H38.1349C37.0336 45.9419 35.9774 45.5043 35.1986 44.7256C34.4198 43.9468 33.9823 42.8906 33.9823 41.7892V25.1788C33.9823 24.0775 34.4198 23.0212 35.1986 22.2425C35.9774 21.4637 37.0336 21.0262 38.1349 21.0262H40.2113V25.1788C40.2113 26.2801 40.6488 27.3364 41.4275 28.1151C42.2063 28.8939 43.2625 29.3314 44.3639 29.3314ZM17.3719 37.6366H9.06667V29.3314H17.3719V37.6366ZM44.3639 41.7892H56.8217V54.2471H44.3639V41.7892ZM44.3639 12.721H56.8217V25.1788H44.3639V12.721Z" fill="#1C1C1C"/>
</svg>
