<svg width="32" height="33" viewBox="0 0 32 33" fill="none" xmlns="http://www.w3.org/2000/svg">
<path d="M19.0338 5.45682C19.0677 5.32991 19.1263 5.21093 19.2063 5.10668C19.2862 5.00243 19.3859 4.91496 19.4997 4.84926C19.6134 4.78355 19.739 4.74091 19.8693 4.72376C19.9995 4.70661 20.1319 4.7153 20.2588 4.74932C22.1126 5.233 23.804 6.20212 25.1587 7.55686C26.5135 8.9116 27.4826 10.603 27.9663 12.4568C28.0003 12.5837 28.009 12.7161 27.9918 12.8463C27.9747 12.9766 27.932 13.1021 27.8663 13.2159C27.8006 13.3297 27.7131 13.4294 27.6089 13.5093C27.5047 13.5893 27.3857 13.6479 27.2588 13.6818C27.1743 13.704 27.0873 13.7153 27 13.7156C26.7796 13.7156 26.5655 13.6428 26.3907 13.5085C26.216 13.3742 26.0905 13.186 26.0338 12.9731C25.6393 11.4597 24.8483 10.079 23.7425 8.9731C22.6366 7.86724 21.2559 7.0763 19.7425 6.68182C19.6155 6.64801 19.4964 6.58948 19.392 6.5096C19.2876 6.42971 19.2 6.33003 19.1342 6.21626C19.0683 6.10248 19.0256 5.97685 19.0084 5.84653C18.9911 5.71622 18.9998 5.58379 19.0338 5.45682ZM18.7425 10.6818C20.4663 11.1418 21.5738 12.2493 22.0338 13.9731C22.0905 14.186 22.216 14.3742 22.3907 14.5085C22.5655 14.6428 22.7796 14.7156 23 14.7156C23.0873 14.7153 23.1743 14.704 23.2588 14.6818C23.3857 14.6479 23.5047 14.5893 23.6089 14.5093C23.7131 14.4294 23.8006 14.3297 23.8663 14.2159C23.932 14.1021 23.9747 13.9766 23.9918 13.8463C24.009 13.7161 24.0003 13.5837 23.9663 13.4568C23.3263 11.0618 21.6538 9.38932 19.2588 8.74932C19.1319 8.71542 18.9995 8.70685 18.8693 8.72409C18.7391 8.74133 18.6136 8.78405 18.4999 8.8498C18.3862 8.91556 18.2866 9.00306 18.2067 9.10732C18.1268 9.21158 18.0683 9.33055 18.0344 9.45744C18.0005 9.58433 17.9919 9.71666 18.0092 9.84686C18.0264 9.97706 18.0691 10.1026 18.1349 10.2163C18.2006 10.33 18.2881 10.4296 18.3924 10.5095C18.4967 10.5894 18.6156 10.6479 18.7425 10.6818ZM28.985 22.6006C28.7621 24.2944 27.9303 25.8491 26.6449 26.9744C25.3595 28.0997 23.7084 28.7186 22 28.7156C12.075 28.7156 4.00001 20.6406 4.00001 10.7156C3.99695 9.00718 4.61587 7.3561 5.74118 6.07069C6.86649 4.78528 8.42122 3.95345 10.115 3.73057C10.5433 3.67827 10.9771 3.76589 11.3515 3.98037C11.7259 4.19484 12.0209 4.52465 12.1925 4.92057L14.8325 10.8143V10.8293C14.9639 11.1324 15.0181 11.4633 14.9904 11.7924C14.9627 12.1216 14.8539 12.4387 14.6738 12.7156C14.6513 12.7493 14.6275 12.7806 14.6025 12.8118L12 15.8968C12.9363 17.7993 14.9263 19.7718 16.8538 20.7106L19.8963 18.1218C19.9261 18.0967 19.9574 18.0733 19.99 18.0518C20.2666 17.8673 20.5849 17.7547 20.916 17.7241C21.2471 17.6936 21.5806 17.7461 21.8863 17.8768L21.9025 17.8843L27.7913 20.5231C28.1879 20.694 28.5185 20.9888 28.7337 21.3633C28.9489 21.7377 29.037 22.1718 28.985 22.6006ZM27 22.3506C27 22.3506 26.9913 22.3506 26.9863 22.3506L21.1113 19.7193L18.0675 22.3081C18.038 22.3331 18.0071 22.3564 17.975 22.3781C17.6872 22.5701 17.3545 22.6841 17.0094 22.7091C16.6644 22.7341 16.3187 22.6691 16.0063 22.5206C13.665 21.3893 11.3313 19.0731 10.1988 16.7568C10.0488 16.4466 9.9815 16.103 10.0034 15.7591C10.0253 15.4153 10.1357 15.083 10.3238 14.7943C10.345 14.7604 10.3688 14.7282 10.395 14.6981L13 11.6093L10.375 5.73432C10.3745 5.72933 10.3745 5.72431 10.375 5.71932C9.16283 5.87744 8.04986 6.47202 7.24453 7.39171C6.43919 8.3114 5.99674 9.49312 6.00001 10.7156C6.00464 14.9576 7.69184 19.0246 10.6914 22.0242C13.691 25.0237 17.758 26.7109 22 26.7156C23.2217 26.7198 24.4031 26.2789 25.3233 25.4753C26.2436 24.6717 26.8396 23.5604 27 22.3493V22.3506Z" fill="url(#paint0_linear_96_991)"/>
<defs>
<linearGradient id="paint0_linear_96_991" x1="6.45759" y1="-30.8079" x2="33.1018" y2="-28.9112" gradientUnits="userSpaceOnUse">
<stop offset="0.2" stop-color="#B0E63B"/>
<stop offset="0.6" stop-color="#E0E23B"/>
</linearGradient>
</defs>
</svg>
