<svg width="27" height="25" viewBox="0 0 27 25" fill="none" xmlns="http://www.w3.org/2000/svg">
<path d="M20.0236 15.4523C19.8866 15.5727 19.7847 15.7279 19.7288 15.9016C19.6729 16.0752 19.6651 16.2608 19.7061 16.4385L21.3961 23.756C21.4408 23.9471 21.4282 24.1472 21.36 24.3312C21.2918 24.5152 21.1709 24.6751 21.0124 24.7909C20.854 24.9067 20.6649 24.9734 20.4689 24.9825C20.2728 24.9916 20.0784 24.9429 19.9099 24.8423L13.5224 20.9673C13.3672 20.8729 13.189 20.823 13.0074 20.823C12.8257 20.823 12.6476 20.8729 12.4924 20.9673L6.10488 24.8423C5.93635 24.9429 5.74194 24.9916 5.54588 24.9825C5.34982 24.9734 5.16079 24.9067 5.00233 24.7909C4.84387 24.6751 4.723 24.5152 4.65477 24.3312C4.58654 24.1472 4.57397 23.9471 4.61863 23.756L6.30863 16.4385C6.34971 16.2608 6.34188 16.0752 6.28598 15.9016C6.23008 15.7279 6.12819 15.5727 5.99113 15.4523L0.352381 10.5335C0.201631 10.4054 0.0922746 10.2354 0.0381494 10.0451C-0.0159759 9.85483 -0.0124374 9.65275 0.048317 9.46447C0.109071 9.27618 0.224311 9.11015 0.379455 8.98738C0.534598 8.86461 0.722673 8.79062 0.919881 8.77476L8.35238 8.13226C8.53372 8.11611 8.7072 8.05076 8.85413 7.94327C9.00105 7.83577 9.11585 7.6902 9.18613 7.52226L12.0899 0.602264C12.1674 0.423354 12.2956 0.271023 12.4586 0.164017C12.6216 0.0570109 12.8124 0 13.0074 0C13.2024 0 13.3931 0.0570109 13.5561 0.164017C13.7192 0.271023 13.8473 0.423354 13.9249 0.602264L16.8286 7.52226C16.8989 7.6902 17.0137 7.83577 17.1606 7.94327C17.3076 8.05076 17.481 8.11611 17.6624 8.13226L25.0949 8.77476C25.2921 8.79062 25.4802 8.86461 25.6353 8.98738C25.7905 9.11015 25.9057 9.27618 25.9664 9.46447C26.0272 9.65275 26.0307 9.85483 25.9766 10.0451C25.9225 10.2354 25.8131 10.4054 25.6624 10.5335L20.0236 15.4523Z" fill="url(#paint0_linear_45_301)"/>
<defs>
<linearGradient id="paint0_linear_45_301" x1="2.55739" y1="-34.5013" x2="30.2718" y2="-32.447" gradientUnits="userSpaceOnUse">
<stop offset="0.2" stop-color="#B0E63B"/>
<stop offset="0.6" stop-color="#E0E23B"/>
</linearGradient>
</defs>
</svg>
