<svg width="90" height="89" viewBox="0 0 90 89" fill="none" xmlns="http://www.w3.org/2000/svg">
<g clip-path="url(#clip0_0_566)">
<path d="M68.7098 0.0656738H21.6139C10.1387 0.0656738 0.836304 9.36812 0.836304 20.8433V67.9391C0.836304 79.4143 10.1387 88.7167 21.6139 88.7167H68.7098C80.1849 88.7167 89.4874 79.4143 89.4874 67.9391V20.8433C89.4874 9.36812 80.1849 0.0656738 68.7098 0.0656738Z" fill="#444444"/>
<mask id="mask0_0_566" style="mask-type:luminance" maskUnits="userSpaceOnUse" x="21" y="9" width="48" height="71">
<path d="M68.1416 9.76172H21.96V79.0203H68.1416V9.76172Z" fill="white"/>
</mask>
<g mask="url(#mask0_0_566)">
<path d="M33.508 79.0204C39.8799 79.0204 45.0511 73.8492 45.0511 67.4774V55.9341H33.508C27.1362 55.9341 21.9648 61.1056 21.9648 67.4774C21.9648 73.8492 27.1362 79.0204 33.508 79.0204Z" fill="#838383"/>
<path d="M21.9648 44.391C21.9648 38.0192 27.1362 32.8479 33.508 32.8479H45.0511V55.934H33.508C27.1362 55.934 21.9648 50.7628 21.9648 44.391Z" fill="#222222"/>
<path d="M21.9651 21.3048C21.9651 14.933 27.1364 9.76172 33.5082 9.76172H45.0513V32.8479H33.5082C27.1364 32.8479 21.9651 27.6766 21.9651 21.3048Z" fill="#838383"/>
<path d="M45.0511 9.76172H56.5941C62.9659 9.76172 68.1375 14.933 68.1375 21.3048C68.1375 27.6766 62.9659 32.8479 56.5941 32.8479H45.0511V9.76172Z" fill="#222222"/>
<path d="M68.1375 44.391C68.1375 50.7628 62.9659 55.934 56.5941 55.934C50.2223 55.934 45.0511 50.7628 45.0511 44.391C45.0511 38.0192 50.2223 32.8479 56.5941 32.8479C62.9659 32.8479 68.1375 38.0192 68.1375 44.391Z" fill="#838383"/>
</g>
</g>
<defs>
<clipPath id="clip0_0_566">
<rect width="88.651" height="88.651" fill="white" transform="translate(0.836304 0.0656738)"/>
</clipPath>
</defs>
</svg>
