<svg width="105" height="99" viewBox="0 0 105 99" fill="none" xmlns="http://www.w3.org/2000/svg">
<path d="M66.5467 34.0766C68.6639 34.0766 70.3972 32.3625 70.3972 30.2617C70.3972 28.1609 68.6639 26.4468 66.5467 26.4468C64.4296 26.4468 62.6963 28.1609 62.6963 30.2617C62.6963 32.3777 64.4113 34.0766 66.5467 34.0766Z" fill="#444444"/>
<path d="M62.7845 37.4165H70.2235V65.3754H62.7845V37.4165Z" fill="#444444"/>
<path d="M39.1153 56.0012H49.1801L51.9004 65.3665H59.5191L48.4551 28.6299H39.2067V32.256L29.5044 65.3665H36.395L39.1153 56.0012ZM44.102 35.1667L47.8215 49.577H40.3856L44.102 35.1667Z" fill="#444444"/>
<path d="M9.70996 7.72827V89.9548H93.7316V7.72827H9.70996ZM87.432 83.4819H16.1315V14.2012H87.432V83.4819Z" fill="#444444"/>
</svg>
