<svg width="94" height="94" viewBox="0 0 94 94" fill="none" xmlns="http://www.w3.org/2000/svg">
<g clip-path="url(#clip0_0_577)">
<rect x="0.186157" y="0.871338" width="93.0397" height="93.0397" rx="9.65506" fill="#010101"/>
<path d="M0.186401 0.871338H93.2261V93.911H0.186401V0.871338ZM85.6046 71.7211C84.9262 67.4761 82.1621 63.9096 73.963 60.5835C71.1098 59.246 67.9387 58.3156 66.9967 56.1641C66.6439 54.8848 66.5896 54.187 66.8183 53.431C67.3998 50.9267 70.3655 50.1746 72.6915 50.8724C74.2034 51.3376 75.599 52.5006 76.4751 54.3614C80.4836 51.7408 80.4836 51.7408 83.2786 50.0002C82.2319 48.372 81.7124 47.6703 81.0069 46.9764C78.5646 44.2433 75.3121 42.8478 70.0205 42.9679L67.2874 43.313C64.6668 43.9526 62.1702 45.3482 60.6583 47.209C56.2389 52.2138 57.5144 60.9362 62.8642 64.5415C68.1558 68.4957 75.8936 69.3641 76.8821 73.0895C77.8125 77.6252 73.5095 79.079 69.2606 78.5556C66.1167 77.8578 64.376 76.2839 62.4571 73.3764L55.3628 77.4508C56.1769 79.3116 57.1073 80.1218 58.5029 81.75C65.2483 88.5574 82.1117 88.2085 85.1394 77.8578C85.2518 77.5089 86.0698 75.1248 85.4263 71.4613L85.6046 71.7211ZM50.7806 43.6347H42.0659C42.0659 51.1477 42.031 58.6141 42.031 66.1387C42.031 70.9147 42.2752 75.2992 41.496 76.6483C40.2167 79.3193 36.9216 78.9782 35.4252 78.5091C33.89 77.7493 33.1108 76.7026 32.2076 75.1946C31.9633 74.7875 31.7811 74.4347 31.7152 74.4347L24.6403 78.796C25.8227 81.2383 27.5478 83.3394 29.773 84.6769C33.0876 86.654 37.5418 87.2936 42.2055 86.2469C45.2409 85.3708 47.8576 83.5681 49.2261 80.7769C51.2032 77.1717 50.7845 72.7523 50.7651 67.8057C50.8116 59.843 50.7651 51.8765 50.7651 43.8518L50.7806 43.6347Z" fill="#3F3F3F"/>
</g>
<defs>
<clipPath id="clip0_0_577">
<rect x="0.186157" y="0.871338" width="93.0397" height="93.0397" rx="9.65506" fill="white"/>
</clipPath>
</defs>
</svg>
