<svg width="104" height="99" viewBox="0 0 104 99" fill="none" xmlns="http://www.w3.org/2000/svg">
<path d="M11.1213 9.33887V91.7602H94.9846V9.33887H11.1213ZM88.3133 85.2051H17.7896V15.894H88.3133V85.2051Z" fill="#444444"/>
<path d="M50.7196 32.469C48.6085 30.6453 45.4617 29.6101 41.0538 29.6101C36.6885 29.6101 31.3881 29.7502 31.3881 29.7502V63.5548H38.4736V52.6915C38.4736 52.6915 39.7135 52.6763 41.0538 52.6215C45.9065 52.4175 48.7486 50.95 51.1887 48.4686C53.0652 46.5474 54.0979 43.8103 54.0979 40.4703C54.0979 37.1304 52.7362 34.1923 50.7196 32.469ZM40.8649 46.6966C39.7226 46.7088 39.2413 46.7453 38.4706 46.6723V34.9991C38.4706 34.9991 39.9724 34.9474 41.4285 34.9991C45.0779 35.1331 47.0123 37.7088 47.0123 40.8479C47.0123 44.3431 44.6667 46.6509 40.8649 46.6966Z" fill="#444444"/>
<path d="M67.9308 47.7317C64.8693 46.6478 63.8975 46.0298 63.8975 44.8424C63.8975 43.5545 64.9698 42.7812 66.8585 42.7812C69 42.7812 72.2412 44.1634 73.3653 44.7845V39.088C71.8361 38.3147 69.5118 37.3647 66.6026 37.3647C60.4279 37.3647 56.4464 40.9239 56.4464 45.6705C56.3946 48.6086 58.3838 50.7094 63.5411 52.4631C66.4503 53.4435 67.2149 54.7983 67.2149 56.0893C67.2149 57.3802 66.2462 58.2053 63.8975 58.2053C61.6007 58.2053 58.2315 56.893 56.8028 56.0192V61.6427C58.6915 62.6718 61.427 63.6491 63.8975 63.7252C71.0958 63.9505 74.7148 60.2178 74.7148 55.523C74.663 51.8085 72.6738 49.385 67.9277 47.7348L67.9308 47.7317Z" fill="#444444"/>
</svg>
