<svg width="140" height="131" viewBox="0 0 140 131" fill="none" xmlns="http://www.w3.org/2000/svg">
<path d="M79.2595 65.338C79.2595 70.7368 74.891 75.114 69.5028 75.114C64.1146 75.114 59.7462 70.7368 59.7462 65.338C59.7462 59.9391 64.1146 55.562 69.5028 55.562C74.891 55.562 79.2595 59.9391 79.2595 65.338Z" fill="#303030"/>
<path d="M69.5027 101.287C77.1629 108.75 84.7129 113.163 90.7986 113.163C92.7931 113.163 94.6816 112.742 96.252 111.798C101.705 108.643 103.7 100.76 101.812 89.5123C101.497 87.5138 101.077 85.5193 100.551 83.4146C102.648 82.7852 104.536 82.1517 106.425 81.5223C117.022 77.4231 122.895 71.7463 122.895 65.5464C122.895 59.2403 117.022 53.5635 106.425 49.5706C104.536 48.8349 102.648 48.2055 100.551 47.6783C101.077 45.5776 101.497 43.5791 101.812 41.5806C103.594 30.1249 101.604 22.1349 96.146 18.9798C94.5715 18.0357 92.683 17.6147 90.6925 17.6147C84.7129 17.6147 77.0527 22.0286 69.3967 29.4914C61.8426 22.0286 54.2885 17.6147 48.2069 17.6147C46.2123 17.6147 44.3238 18.0357 42.7535 18.9798C37.3 22.1349 35.3054 30.0186 37.1939 41.2659C37.508 43.2644 37.9281 45.2588 38.4543 47.3636C36.3578 47.993 34.4693 48.6265 32.5807 49.2559C21.9838 53.3551 16.1102 59.0319 16.1102 65.2317C16.1102 71.5379 21.9838 77.2147 32.5807 81.2076C34.4693 81.9433 36.3578 82.5727 38.4543 83.0999C37.9281 85.2006 37.508 87.1991 37.1939 89.1976C35.4115 100.445 37.402 108.435 42.7535 111.484C44.3279 112.432 46.2164 112.849 48.2069 112.849C54.2926 113.057 61.8467 108.643 69.5027 101.287ZM63.6251 87.0969C65.5136 87.2032 67.5082 87.2032 69.4987 87.2032C71.4891 87.2032 73.4837 87.2032 75.3722 87.0969C73.4837 89.6186 71.4891 91.9318 69.4987 94.1387C67.5041 91.9318 65.5136 89.6186 63.6251 87.0969ZM50.6175 76.2706C51.6658 78.0566 52.6121 79.7404 53.7664 81.4201C50.5156 80.9992 47.4727 80.472 44.5359 79.8426C45.4822 77.0062 46.5305 74.0595 47.7868 71.1169C48.627 72.7967 49.5693 74.5868 50.6175 76.2665V76.2706ZM44.5318 50.9356C47.4686 50.3062 50.5115 49.779 53.7623 49.358C52.7141 51.0419 51.6658 52.7216 50.6135 54.5076C49.5611 56.2936 48.6189 57.9774 47.7827 59.7634C46.4204 56.7146 45.368 53.776 44.5318 50.9356ZM50.3035 65.338C51.6658 62.5017 53.1342 59.6612 54.8147 56.8249C56.3891 54.0907 58.1716 51.3606 59.9541 48.6265C63.103 48.4181 66.2478 48.3118 69.5027 48.3118C72.8597 48.3118 76.0085 48.4181 79.0514 48.6265C80.9399 51.3606 82.6163 54.0907 84.1908 56.8249C85.8713 59.6612 87.3397 62.5017 88.702 65.338C87.3397 68.1743 85.8713 71.0148 84.1908 73.8511C82.6163 76.5853 80.8339 79.3154 79.0514 82.0495C75.9025 82.258 72.7577 82.3642 69.5027 82.3642C66.1458 82.3642 62.9969 82.258 59.9541 82.0495C58.0656 79.3154 56.3891 76.5853 54.8147 73.8511C53.1342 71.0107 51.6658 68.1743 50.3035 65.338ZM91.3247 59.6612L88.494 54.4054C87.4457 52.6194 86.4994 50.9356 85.3451 49.2559C88.596 49.6768 91.6388 50.204 94.5756 50.8334C93.6334 53.776 92.581 56.7146 91.3247 59.6612ZM91.3247 71.0148C92.5851 73.9574 93.6334 76.9 94.5756 79.7404C91.6388 80.3698 88.596 80.897 85.3451 81.318C86.3934 79.6341 87.4416 77.9544 88.494 76.1684C89.4403 74.5908 90.3825 72.8049 91.3247 71.0189V71.0148ZM93.7353 107.491C92.8951 108.018 91.8468 108.226 90.6925 108.226C85.5531 108.226 79.1534 104.021 72.8597 97.7148C75.9025 94.4575 78.8393 90.7752 81.7761 86.6759C86.7074 86.255 91.4267 85.5193 95.836 84.469C96.3621 86.3613 96.6762 88.2535 96.9903 90.1458C98.4587 99.0798 97.3003 105.492 93.7353 107.491ZM99.1929 52.0922C110.944 55.4558 117.972 60.6053 117.972 65.338C117.972 69.4372 113.147 73.5364 104.65 76.7978C102.97 77.4272 101.085 78.0607 99.197 78.5838C97.8346 74.2721 96.1541 69.8582 94.0576 65.338C96.1541 60.8178 97.9366 56.4039 99.1929 52.0922ZM90.7986 22.4496C91.9529 22.4496 92.8951 22.658 93.8414 23.1853C97.3044 25.1838 98.5607 31.4899 97.0923 40.5302C96.7782 42.3162 96.3581 44.2085 95.9379 46.207C91.5327 45.2588 86.8094 44.5232 81.878 44.0001C79.0473 39.9009 76.0045 36.2226 72.9616 32.9612C79.2553 26.7572 85.6592 22.4496 90.7986 22.4496ZM75.3763 43.5791C73.4878 43.4728 71.4932 43.4728 69.5027 43.4728C67.5122 43.4728 65.5177 43.4728 63.6292 43.5791C65.5177 41.0575 67.5122 38.7443 69.5027 36.5373C71.4973 38.7443 73.4878 41.1637 75.3763 43.5791ZM45.266 23.1853C46.1063 22.658 47.1546 22.4496 48.3089 22.4496C53.4483 22.4496 59.848 26.6551 66.1417 32.9612C63.0989 36.2185 60.1621 39.8968 57.2253 44.0001C52.294 44.421 47.5747 45.1567 43.1654 46.207C42.6392 44.3148 42.3252 42.4225 42.0111 40.5302C40.5427 31.5962 41.7011 25.29 45.266 23.1853ZM39.8126 78.5838C28.0613 75.2202 21.0334 70.0707 21.0334 65.338C21.0334 61.2388 25.8587 57.1396 34.3551 53.8823C36.0355 53.2529 37.92 52.6194 39.8085 52.0963C41.1709 56.408 42.8514 60.8219 44.9479 65.3421C42.8514 69.8623 41.0648 74.3824 39.8085 78.5879L39.8126 78.5838ZM42.0152 90.1458C42.3293 88.3598 42.7494 86.4675 43.1695 84.469C47.5747 85.4172 52.298 86.1528 57.2294 86.6759C60.0601 90.7752 63.103 94.4534 66.1458 97.7148C59.8521 103.915 53.4524 108.226 48.313 108.226C47.1586 108.226 46.2164 108.018 45.2701 107.491C41.7011 105.492 40.5509 99.0798 42.0193 90.1458H42.0152Z" fill="#303030"/>
</svg>
