<svg width="82" height="85" viewBox="0 0 82 85" fill="none" xmlns="http://www.w3.org/2000/svg">
<g clip-path="url(#clip0_0_543)">
<rect x="0.838501" y="0.69873" width="80.7514" height="83.3847" rx="40.3757" fill="#444444"/>
<path d="M41.2143 2.00171C18.91 2.00171 0.838562 20.0792 0.838562 42.3911C0.838562 64.7031 18.91 82.7806 41.2143 82.7806C63.5186 82.7806 81.59 64.7031 81.59 42.3911C81.59 20.0792 63.5186 2.00171 41.2143 2.00171ZM49.7941 17.1477C51.2268 14.6723 54.4015 13.8091 56.8762 15.2423C59.3671 16.6755 60.2137 19.8512 58.781 22.343C57.3483 24.8185 54.1736 25.6816 51.699 24.2485C49.208 22.799 48.3614 19.6232 49.7941 17.1477ZM15.0677 47.5864C12.2024 47.5864 9.87426 45.2575 9.87426 42.3911C9.87426 39.5248 12.2024 37.1959 15.0677 37.1959C17.9331 37.1959 20.2612 39.5248 20.2612 42.3911C20.2612 45.2575 17.9331 47.5864 15.0677 47.5864ZM19.6426 48.0913C23.2731 45.1761 23.2894 39.6388 19.6426 36.7073C21.0427 31.3655 24.3802 26.8217 28.8411 23.825L32.6996 30.2743C24.3151 36.1862 24.3151 48.5961 32.6996 54.508L28.8411 60.9573C24.3802 57.9769 21.059 53.4168 19.6426 48.0913ZM56.8762 69.54C54.3852 70.9732 51.2268 70.1263 49.7941 67.6346C48.3614 65.1428 49.208 61.967 51.699 60.5338C54.1736 59.1007 57.3483 59.9475 58.781 62.4393C60.2137 64.9311 59.3671 68.1068 56.8762 69.54ZM56.925 58.2212C52.5781 56.5437 47.7916 59.2961 47.0753 63.9213C46.2287 64.1493 39.1141 66.2502 31.332 62.3904L34.9951 55.8272C44.275 60.143 55.0853 53.9217 55.9807 43.7103L63.4861 43.8243C63.1116 49.443 60.6695 54.4917 56.925 58.2212ZM55.9645 41.072C55.0853 30.9746 44.3564 24.5905 34.9788 28.9551L31.3157 22.3919C39.1141 18.5321 46.2124 20.633 47.059 20.861C47.7753 25.4699 52.5618 28.2386 56.9087 26.5611C60.6695 30.2906 63.0953 35.3393 63.4535 40.9743L55.9645 41.072Z" fill="black"/>
</g>
<rect x="3.4717" y="3.33193" width="75.4851" height="78.1183" rx="37.7425" stroke="#444444" stroke-width="5.2664"/>
<defs>
<clipPath id="clip0_0_543">
<rect x="0.838501" y="0.69873" width="80.7514" height="83.3847" rx="40.3757" fill="white"/>
</clipPath>
</defs>
</svg>
