<svg width="104" height="103" viewBox="0 0 104 103" fill="none" xmlns="http://www.w3.org/2000/svg">
<g clip-path="url(#clip0_0_579)">
<path d="M49.1432 0.043763C29.9882 -0.0164098 -6.85757 43.8896 6.90192 55.523L10.2917 58.3912C9.38906 60.8383 9.04809 63.4658 9.34895 66.0532C9.70998 69.6435 11.5753 73.0934 14.5639 75.741C17.4121 78.2683 21.1629 79.8729 24.7933 79.8729C30.8106 93.7327 44.57 102.237 60.6763 102.718C77.9659 103.24 92.4876 95.1167 98.565 80.5549C98.9662 79.5319 100.651 74.9187 100.651 70.847C100.651 66.7552 98.3444 65.0704 96.8601 65.0704C96.82 64.91 96.5192 63.8469 96.118 62.5632C95.7169 61.2795 95.2956 60.3769 95.2956 60.3769C96.9003 57.97 96.9203 55.8239 96.7197 54.6004C96.4991 53.096 95.8573 51.8124 94.5936 50.4685C93.33 49.1447 90.7426 47.7808 87.0921 46.7578L85.1866 46.2364C85.1866 46.1561 85.0863 41.7234 85.0061 39.838C84.9459 38.4741 84.8256 36.3279 84.1637 34.2018C83.3614 31.3336 81.9975 28.8464 80.2725 27.2418C85.0262 22.3077 87.9947 16.8721 87.9947 12.2187C87.9746 3.25297 76.963 0.545202 63.4041 6.16132L60.5359 7.38483C58.7909 5.65988 57.0258 3.93493 55.2607 2.23004C53.5759 0.72572 51.4899 0.043763 49.1432 0.043763ZM49.444 3.77447C50.146 3.77447 50.828 3.8547 51.4297 4.01516C52.6934 4.3762 56.9055 9.25019 56.9055 9.25019C56.9055 9.25019 49.083 13.5826 41.8422 19.64C32.0942 27.1616 24.713 38.093 20.2803 49.947C16.8304 50.629 13.7616 52.5946 11.8963 55.3024C10.773 54.3597 8.68705 52.5545 8.32601 51.8525C5.33743 46.1762 11.5753 35.1646 15.9479 28.9267C25.8964 14.766 41.0199 3.75441 49.444 3.77447ZM63.5044 17.7747C63.6849 17.7747 63.7651 17.9953 63.6247 18.0956C63.003 18.5569 62.3411 19.1987 61.8597 19.8606C61.7995 19.9409 61.8196 20.0412 61.8998 20.1013C61.9198 20.1214 61.96 20.1414 62.0001 20.1414C64.8282 20.1615 68.7996 21.1443 71.387 22.5885C71.5675 22.6888 71.4472 23.0297 71.2466 22.9896C67.3354 22.087 60.917 21.4051 54.2579 23.0297C48.3008 24.4939 43.7677 26.7203 40.4582 29.1272C40.2777 29.2476 40.0972 29.027 40.2176 28.8665C44.0485 24.4338 48.7621 20.5827 52.9942 18.4165C53.1346 18.3363 53.2951 18.4967 53.2149 18.6371C52.8739 19.2589 52.232 20.5426 52.0315 21.5455C52.0114 21.6859 52.1719 21.8062 52.2922 21.726C54.9198 19.9409 59.4929 18.0354 63.5044 17.7747ZM76.4415 31.494H76.6822C77.3842 31.5141 78.0461 31.7347 78.6278 32.1158C80.9144 33.6402 81.2353 37.3107 81.3556 40.0185C81.4158 41.5629 81.6164 45.2736 81.6766 46.3366C81.817 48.7837 82.4588 49.1246 83.7625 49.5459C84.4846 49.7865 85.1666 49.9671 86.1694 50.2479C89.1981 51.0903 90.9833 51.9528 92.1265 53.0559C92.7885 53.7579 93.1094 54.48 93.2097 55.182C93.5707 57.7895 91.1838 60.9987 84.9058 63.9071C78.0261 67.0962 69.6821 67.8985 63.9256 67.2567L61.9198 67.0361C57.3066 66.4143 54.6791 72.3714 57.447 76.4631C59.2321 79.0907 64.0861 80.8156 68.94 80.8156C80.092 80.8156 88.6365 76.062 91.8257 71.9502C91.926 71.8298 92.0062 71.7095 92.0864 71.5891C92.2469 71.3484 92.1065 71.2281 91.9059 71.3484C89.2984 73.1336 77.7453 80.1938 65.3697 78.0677C65.3697 78.0677 63.8654 77.827 62.5015 77.2855C61.4184 76.8643 59.1318 75.8213 58.851 73.4745C68.8397 76.5634 75.1177 73.635 75.1177 73.635C75.2381 73.5748 75.3183 73.4545 75.2982 73.3341C75.2782 73.1737 75.1378 73.0533 74.9773 73.0734C74.9773 73.0734 66.7938 74.2768 59.0717 71.4487C59.9141 68.7008 62.1605 69.7037 65.5302 69.9645C70.7853 70.2854 76.0604 69.7037 81.135 68.2796C84.6451 67.2767 89.2383 65.291 92.8085 62.483C94.012 65.1306 94.4332 68.0389 94.4332 68.0389C94.4332 68.0389 95.3759 67.8584 96.1381 68.3599C96.8802 68.8212 97.4218 69.7639 97.0407 72.1908C96.2785 76.7439 94.3529 80.4345 91.1036 83.8242C89.0778 86.0105 86.6508 87.8157 83.9832 89.1395C82.519 89.9017 80.9745 90.5636 79.3298 91.1051C67.0746 95.0966 54.5387 90.704 50.487 81.2569C50.1661 80.5348 49.8853 79.7927 49.6847 79.0305C47.9598 72.8126 49.424 65.3312 53.9971 60.6377C54.2779 60.3368 54.5587 59.9758 54.5587 59.5345C54.5587 59.1534 54.318 58.7723 54.1175 58.4915C52.5128 56.1648 46.977 52.2135 48.0801 44.5716C48.8824 39.0758 53.6762 35.2047 58.1691 35.4454L59.3124 35.5056C61.2579 35.6259 62.9428 35.8666 64.5474 35.9268C67.215 36.0471 69.622 35.666 72.4701 33.2792C73.4329 32.4769 74.1951 31.7748 75.4988 31.5542C75.6392 31.5943 75.92 31.494 76.4415 31.494ZM76.5418 40.8208C76.4616 40.8208 76.3613 40.8208 76.2811 40.8409C74.857 41.0816 74.7968 42.8466 75.2982 45.2936C75.5991 46.6576 76.1005 47.841 76.6622 48.563C77.4043 48.4828 78.1264 48.4627 78.7883 48.563C79.1694 47.6805 79.2295 46.1762 78.8886 44.5315C78.4272 42.2449 77.7854 40.8008 76.5418 40.8208ZM60.8769 47.4398C59.3124 47.4398 57.788 47.9212 56.5244 48.8438C55.8424 49.3453 55.2006 50.0473 55.2808 50.4685C55.3209 50.6089 55.4212 50.7092 55.6619 50.7292C56.2235 50.7894 58.1891 49.8066 60.4556 49.6662C62.0602 49.5659 63.384 50.0673 64.407 50.5287C65.4299 50.9699 66.0517 51.2708 66.3125 51.0101C66.4729 50.8496 66.4328 50.5487 66.1721 50.1275C65.6706 49.3052 64.6276 48.4627 63.5245 48.0014C62.7021 47.6404 61.7794 47.4398 60.8769 47.4398ZM78.347 50.9098C77.6249 50.8897 77.0031 51.7121 76.9831 52.715C76.963 53.7178 77.5447 54.5602 78.2868 54.5602C79.029 54.5803 79.6307 53.778 79.6507 52.7551C79.6507 51.7522 79.0691 50.9098 78.347 50.9098ZM63.023 51.6519C62.8024 51.6519 62.5817 51.6519 62.3611 51.692C61.0373 51.9126 60.2952 52.3339 59.8138 52.7551C59.4127 53.096 59.172 53.4972 59.172 53.778C59.172 53.9585 59.3124 54.0989 59.4929 54.0989C59.7937 54.0989 60.4757 53.8382 60.4757 53.8382C61.8396 53.3167 63.3239 53.1763 64.768 53.3969C65.4299 53.4771 65.7508 53.5173 65.9113 53.2766C65.9514 53.2164 66.0116 53.076 65.8712 52.8553C65.5703 52.374 64.5073 51.672 63.023 51.6519ZM72.6908 53.3568C72.1492 53.3568 71.6879 53.5774 71.4873 53.9986C71.1664 54.6605 71.6277 55.5431 72.5303 55.9843C73.4329 56.4256 74.4358 56.2451 74.7567 55.6032C75.0776 54.9413 74.6163 54.0387 73.7137 53.5975C73.3928 53.437 73.0518 53.3568 72.6908 53.3568ZM22.9079 53.4571C23.1084 53.4571 23.3291 53.4571 23.5497 53.4771C26.6787 53.6577 31.2719 56.0445 32.3349 62.844C33.2576 68.8814 31.7934 74.9989 26.1371 75.9817C25.6156 76.062 25.0741 76.1021 24.5325 76.1021C19.3176 75.9617 13.6613 71.2682 13.0997 65.6922C12.4779 59.5345 15.627 54.7809 21.203 53.6576C21.7044 53.5373 22.2861 53.4571 22.9079 53.4571ZM22.607 57.4285C21.2431 57.4084 19.9193 57.9901 18.9766 58.993C17.3519 60.7781 17.0912 63.2251 17.4121 64.0876C17.5324 64.4085 17.713 64.4887 17.8333 64.5088C18.1141 64.5489 18.5153 64.3483 18.776 63.6463C18.7961 63.5661 18.8362 63.5059 18.8562 63.4257C19.0167 62.8641 19.2373 62.3426 19.5181 61.8411C20.4007 60.4772 22.2259 60.0961 23.5898 60.9787C24.7331 61.7208 25.1744 63.1248 24.6729 64.4486C24.4322 65.1306 24.011 66.4544 24.1113 67.5375C24.2918 69.7238 25.6357 70.6063 26.8592 70.6865C28.0225 70.7266 28.8449 70.0648 29.0655 69.5834C29.1859 69.3026 29.0856 69.122 29.0254 69.0418C28.8449 68.8212 28.544 68.8814 28.2632 68.9616C28.0426 69.0218 27.8019 69.0619 27.5813 69.0619C27.0798 69.0819 26.6185 68.8412 26.3177 68.42C25.9767 67.8985 25.9967 67.1363 26.3778 66.2538C26.4179 66.1335 26.4781 66.0131 26.5583 65.8527C27.14 64.5289 28.1429 62.3225 27.0197 60.2165C26.1773 58.6319 24.8334 57.6491 23.1887 57.4285H22.607Z" fill="#303030"/>
</g>
<defs>
<clipPath id="clip0_0_579">
<rect width="102.695" height="102.695" fill="white" transform="translate(0.924561 0.0437012)"/>
</clipPath>
</defs>
</svg>
